<svg width="704" height="135" viewBox="0 0 704 135" fill="none" xmlns="http://www.w3.org/2000/svg">
<path d="M16.0825 109.978C17.3984 111.522 18.7867 113.003 20.2427 114.416C25.1503 119.246 31.0027 123.306 37.281 126.377C39.5943 127.46 41.728 128.582 44.228 129.548C44.8526 129.788 45.4907 130.045 46.1615 130.276C46.8379 130.491 47.5392 130.705 48.2725 130.917C49.0014 131.145 49.7787 131.307 50.5914 131.475C51.4049 131.638 52.2495 131.825 53.1567 131.918C48.6565 130.969 44.2702 129.544 40.072 127.666C35.8476 125.761 31.8336 123.419 28.0953 120.68C20.6082 115.196 14.2043 108.154 9.52664 100.104C9.33357 99.8629 9.04042 99.4044 8.68906 98.8202L8.12405 97.8634L7.55407 96.7625C7.17503 95.9987 6.7385 95.2236 6.40418 94.4726C6.10439 93.8158 5.79059 93.1655 5.46297 92.5221C6.91666 96.1428 8.59466 99.31 10.4735 102.322C11.339 103.703 12.255 105.052 13.2198 106.366C13.0835 106.182 12.9416 106.003 12.806 105.818C13.8398 107.242 14.9291 108.625 16.0711 109.964L16.0825 109.978ZM0.94785 75.2701L0.605011 72.5195C0.786723 74.1982 0.997537 76.0743 1.38297 77.9524L1.15086 76.6187C1.06518 76.1721 0.99746 75.7221 0.94785 75.2701ZM60.9107 131.724C65.6323 132.201 70.584 132.059 75.4342 131.291C80.2871 130.527 85.0337 129.171 89.4466 127.424C81.3192 130.62 72.6936 132.042 64.2553 131.804C63.126 131.786 62.013 131.804 60.9107 131.724Z" fill="#DB271F"/>
<path d="M32.954 122.064L32.7702 121.947C32.8319 121.986 32.8923 122.026 32.954 122.064ZM39.8044 125.839C43.6951 127.649 47.7702 129.033 51.9585 129.967C45.0819 128.398 38.6105 125.631 32.954 122.064C35.126 123.446 37.4095 124.726 39.8044 125.839ZM125.638 76.0168C125.708 74.8953 125.849 73.7184 125.884 73.1584C126.306 69.5589 126.431 66.4854 126.413 63.402C126.335 62.8462 126.111 61.8049 126.022 60.621C125.914 59.4341 125.754 58.2722 125.619 57.1258C125.414 55.9894 125.237 54.8644 125.013 53.7613C126.628 62.0072 126.601 70.285 125.115 78.0951C125.279 77.3996 125.453 76.7067 125.638 76.0168Z" fill="#DB271F"/>
<path d="M0.629851 59.2567C1.23177 54.359 2.51298 49.5848 3.73173 46.4041L3.23841 48.7323C3.54292 48.0502 4.03482 46.4652 4.70559 44.7879L5.18969 43.5088L5.72418 42.2687C6.07908 41.466 6.3772 40.705 6.69165 40.1216C6.47658 40.6688 6.26931 41.2587 6.01946 41.8507C5.77457 42.4448 5.49987 43.0481 5.23795 43.655L6.31261 41.2353C5.22829 43.9516 4.29489 46.7257 3.51666 49.545C2.71244 52.6341 2.07645 55.8808 1.73432 58.7953C1.63495 59.5222 1.60016 60.232 1.53557 60.9091C1.48801 61.5863 1.40568 62.2322 1.39929 62.8427C1.36948 64.0628 1.32831 65.1311 1.34889 65.9857C1.42342 67.6957 1.52634 68.5481 1.6747 68.0719C1.96643 67.1257 1.96075 62.2599 2.97862 56.1704C3.52305 53.1353 4.30455 49.8062 5.36501 46.5447C6.41766 43.2802 7.79754 40.1152 9.22639 37.3228L8.80618 38.2399L8.41933 39.1846L7.62718 41.0947L6.90033 43.068L6.53052 44.0632C6.42192 44.401 6.3119 44.7403 6.2033 45.081C5.26635 47.7833 4.56576 50.6289 3.95532 53.4973L3.55854 55.6636C3.41303 56.3834 3.35127 57.1159 3.24338 57.8406C3.01766 59.2893 2.93532 60.7487 2.80968 62.1911C2.66843 65.0828 2.64004 67.9391 2.90196 70.6705C2.89131 70.0217 2.88067 69.4453 2.88989 68.8874L2.97152 67.2158C3.00559 66.6416 2.99921 66.0326 3.05315 65.3348C3.10284 64.6371 3.14827 63.8506 3.18802 62.92C3.46555 58.2296 4.30384 53.586 5.60706 49.0922C6.84923 44.5792 8.31428 40.6049 10.497 37.0041L11.0655 35.9209C11.4502 35.194 11.7704 34.4771 12.1771 33.746C12.6406 32.9439 13.0842 32.3434 13.4434 31.7933C13.8132 31.2489 14.1269 30.7705 14.4861 30.3063L17.0996 26.699C17.1529 26.6926 17.084 26.8303 16.9577 27.0348C17.3886 26.4207 17.8528 25.8307 18.3482 25.2673C18.8841 24.6462 19.4044 23.9875 19.8452 23.4438C19.9488 23.4388 20.0496 23.436 20.2874 23.2656C26.4273 16.7375 33.9832 11.4175 42.4981 8.06359L44.3912 7.3261L46.3077 6.68798L47.261 6.36998L48.2263 6.10025L50.1499 5.56576C51.2501 5.301 52.3645 5.03269 53.5009 4.79136L55.2308 4.48898C55.8121 4.38889 56.3963 4.27603 56.9939 4.22067C58.1822 4.078 59.2185 3.77703 59.7771 3.70321C62.8783 3.52647 65.9738 3.56196 69.6073 3.85653C69.8891 3.8615 70.3278 3.88706 70.8367 3.91474C71.3456 3.94384 71.9277 3.95804 72.492 4.00985C73.1535 4.15891 73.8598 4.30656 74.6008 4.45065C79.1216 5.15194 83.4927 6.40547 87.6514 8.07282L87.6465 8.05295L89.2393 8.68752L90.8648 9.4385C91.9799 9.92401 93.0723 10.5451 94.2009 11.13C94.7673 11.4189 95.3039 11.7717 95.8604 12.0911C96.407 12.4275 96.9791 12.7256 97.5072 13.0933C98.5776 13.8046 99.6629 14.4853 100.663 15.2455C102.276 16.4091 103.839 17.6401 105.348 18.9351C105.38 18.9649 105.414 18.9926 105.447 19.0217L105.477 19.0487L106.511 19.987L107.501 20.9744L108.491 21.9624C108.819 22.2939 109.123 22.6488 109.44 22.9909C109.287 22.7425 109.292 22.6424 109.298 22.5438C108.809 22.0753 108.23 21.5209 107.659 20.9751C108.612 21.8425 109.444 22.6268 110.127 23.2671C110.39 23.6035 110.678 23.9343 110.95 24.2956L111.792 25.4072L112.687 26.5634L113.578 27.807C115.158 29.8215 116.553 31.9765 117.877 34.174C118.491 35.3012 119.167 36.3965 119.713 37.5627L120.574 39.2918L121.349 41.0642C121.572 41.4425 121.485 41.0798 121.513 41.0159C122.383 43.1184 123.082 45.3046 123.715 47.5079C124.925 51.4896 125.736 55.582 126.134 59.7245C126.294 60.7026 126.362 61.6921 126.503 62.6723L126.416 64.7478C126.415 65.5307 126.456 66.3137 126.423 67.098L126.332 69.4588C126.321 69.9912 126.244 70.5725 126.199 71.2043C126.14 71.8346 126.108 72.5146 126.018 73.2315L125.725 75.4972C125.631 76.2915 125.45 77.1078 125.311 77.961C124.618 81.7075 123.594 85.385 122.251 88.9503C122.079 89.5366 121.947 90.0051 121.83 90.267C121.385 91.3324 120.91 92.3638 120.452 93.3795C119.939 94.369 119.468 95.3585 118.942 96.2954C117.315 99.38 115.428 102.32 113.3 105.082C113.061 105.394 112.839 105.71 112.599 106.003L111.891 106.859C111.422 107.412 111.004 107.965 110.559 108.445C109.671 109.404 108.926 110.294 108.227 110.964C107.426 111.8 107.498 111.839 108.052 111.436C108.441 111.148 108.822 110.85 109.194 110.54L110.7 109.181C111.251 108.701 111.778 108.159 112.286 107.647C112.789 107.133 113.291 106.664 113.679 106.239C114.46 105.394 114.974 104.872 114.864 105.104C113.603 107.479 111.306 110.407 107.949 113.647C106.236 115.228 104.309 116.945 102.029 118.601C100.918 119.468 99.6821 120.261 98.4221 121.127C97.1203 121.924 95.7901 122.797 94.3357 123.572C91.1529 125.305 96.7243 122.525 96.8747 122.499C96.3374 122.922 95.7739 123.311 95.1875 123.663C94.1384 124.221 93.0985 124.797 92.0118 125.276C91.3765 125.568 90.7526 125.883 90.1102 126.156L88.1732 126.952L89.1981 126.549C91.2935 125.716 93.2519 124.735 95.02 123.765C94.3556 124.167 93.6288 124.632 92.8324 125.051C91.9785 125.493 91.0947 125.976 90.2082 126.406L87.6351 127.603C96.84 124.259 105.299 118.725 111.995 111.512C115.348 107.916 118.337 103.966 120.775 99.6926C123.227 95.4282 125.2 90.9054 126.658 86.2069C124.419 93.2553 120.929 99.7302 116.734 105.205C124.36 94.9077 128.907 82.283 129.51 69.2629C129.509 69.9805 129.438 70.6953 129.391 71.4101C129.332 72.1249 129.303 72.8425 129.219 73.5552C129.037 74.9783 128.906 76.4093 128.632 77.8204C128.19 80.6597 127.471 83.4499 126.658 86.2069C128.263 81.2233 129.222 75.9685 129.6 70.684C129.993 65.3951 129.665 60.0744 128.85 54.9183C130.251 61.7481 130.483 69.4865 129.289 77.134C130.128 72.2015 130.341 67.1172 130.019 62.0761C129.946 60.1503 129.719 58.2381 129.533 56.4678C129.265 54.7103 129.063 53.0877 128.804 51.7753C129.829 56.6204 130.234 60.753 130.431 64.6484C130.242 56.147 128.481 47.5334 125.022 39.4423C126.91 43.8367 128.459 48.5641 129.405 53.4242C130.357 58.2793 130.752 63.2465 130.527 68.025C130.516 67.4657 130.54 66.9071 130.507 66.3456L130.431 64.6484C130.635 72.3499 129.449 79.9832 127.098 87.1616C125.918 90.7504 124.461 94.2377 122.697 97.556C120.937 100.869 118.904 104.031 116.621 107.008C119.228 103.963 121.981 99.6585 124.178 94.9305C126.365 90.1925 127.988 85.0683 129.104 80.5929C127.462 88.6294 124.202 96.5595 119.472 103.641C114.754 110.729 108.575 116.96 101.426 121.743C94.2854 126.541 86.1835 129.861 77.8695 131.501C73.7413 132.321 69.5451 132.751 65.3364 132.785C61.2043 132.807 57.0791 132.447 53.0133 131.71L55.1463 132.115C55.8575 132.25 56.5787 132.325 57.2942 132.431C58.7252 132.661 60.1725 132.748 61.6148 132.881C64.5059 133.043 67.4126 133.098 70.31 132.877C73.2124 132.723 76.0964 132.29 78.9669 131.761C80.3908 131.438 81.8317 131.173 83.2378 130.758C83.9434 130.56 84.6574 130.388 85.358 130.168L87.4555 129.488C86.3965 129.816 85.2821 130.251 84.0917 130.569L82.6004 131.008C85.7301 130.174 88.7931 129.107 91.7641 127.817C93.1232 127.224 94.461 126.583 95.7752 125.897C93.3129 127.203 90.7732 128.358 88.1703 129.355C83.2069 131.207 78.0489 132.489 72.7958 133.175C72.0079 133.3 71.2896 133.339 70.6458 133.407L68.9223 133.577C67.908 133.657 67.1592 133.693 66.6353 133.751C65.5869 133.855 65.4379 133.952 65.8552 134.033C66.2719 134.113 67.2543 134.177 68.4624 134.211C69.6669 134.204 71.0958 134.139 72.3954 134.021C85.4539 132.681 97.4433 127.556 107.051 119.884C116.666 112.21 124.029 102.017 128.133 90.4501C128.391 89.7786 128.589 89.0859 128.804 88.3988C129.012 87.7095 129.241 87.0274 129.43 86.3318C129.778 84.9334 130.191 83.5514 130.457 82.1318L130.897 80.013L131.242 77.8751L131.414 76.8054L131.536 75.7286L131.778 73.575C132.274 67.8156 132.078 61.9944 131.202 56.2819C130.734 53.0494 129.91 49.2114 128.849 45.793L128.033 43.32C127.749 42.5342 127.447 41.7932 127.179 41.0961L126.783 40.0918L126.378 39.1896L125.682 37.6819C123.457 33.1682 120.662 28.8632 117.39 24.8592C114.121 20.8537 110.365 17.1449 106.131 13.9153L104.539 12.7065L102.887 11.5651L102.059 10.993L101.205 10.4564L99.4897 9.38597C97.1509 8.03449 94.7552 6.73198 92.2297 5.65165C89.7305 4.51737 87.1148 3.59674 84.4523 2.77336C83.1072 2.40426 81.7685 1.99257 80.3894 1.70935C79.7022 1.561 79.0208 1.38071 78.3259 1.25649L76.2362 0.886678C71.2392 0.00722073 66.0412 -0.202174 60.8482 0.188223C55.6581 0.589267 50.4459 1.57449 45.4481 3.2752L43.5778 3.92326C42.9524 4.13407 42.3498 4.40735 41.7344 4.64656C41.1254 4.90138 40.5029 5.12426 39.9052 5.40534L38.1079 6.23796C37.5032 6.50484 36.919 6.81148 36.3363 7.12167L34.5837 8.0423L32.8788 9.04455C32.3109 9.37959 31.7388 9.70681 31.1951 10.0795L29.5455 11.1641C28.9904 11.5168 28.4765 11.9292 27.9406 12.3083C27.4146 12.7015 26.8688 13.0678 26.3606 13.4823L24.8295 14.7152C24.312 15.1163 23.8237 15.5514 23.3368 15.9872L21.8724 17.2862L20.4734 18.6483C20.0077 19.1019 19.5371 19.5505 19.1034 20.0332C15.5324 23.7937 12.395 27.8965 9.82902 32.2377C7.31278 36.4964 5.25082 41.0076 3.67708 45.6971C0.571646 54.8679 -0.319168 64.1686 0.0953623 72.5692C0.00592594 69.111 -0.00898011 64.1516 0.629851 59.2567ZM100.807 123.456C102.964 122.062 105.041 120.548 107.029 118.921C105.013 120.582 102.942 122.115 100.807 123.456ZM129.354 84.9264C129.141 85.5659 128.962 86.1976 128.728 86.801L128.048 88.5918L127.718 89.4777L127.353 90.3514C127.11 90.9402 126.874 91.532 126.646 92.1267C125.331 95.4001 123.768 98.568 121.97 101.603C120.181 104.637 118.107 107.481 115.891 110.149C114.796 111.497 113.604 112.747 112.431 113.997L110.599 115.788C109.998 116.389 109.34 116.926 108.717 117.494C108.194 117.948 107.667 118.393 107.137 118.83C109.107 117.212 110.978 115.479 112.742 113.64C110.19 116.285 107.414 118.704 104.445 120.871C103.71 121.384 102.999 121.933 102.235 122.416L99.9305 123.884L97.4958 125.268C96.6675 125.728 95.793 126.137 94.9164 126.585C95.5442 126.215 96.1796 125.858 96.8222 125.514C97.5469 125.112 98.3071 124.636 99.0496 124.201C99.7978 123.774 100.478 123.306 101.043 122.914C101.608 122.522 102.051 122.197 102.281 121.987C101.952 122.211 101.617 122.425 101.283 122.643C101.642 122.406 101.999 122.166 102.353 121.922C102.338 121.939 102.307 121.964 102.281 121.987C110.041 116.688 116.652 109.724 121.605 101.784C126.58 93.8522 129.817 84.9044 131.159 75.8046C130.868 79.4544 130.199 82.3689 129.354 84.9264ZM118.634 29.5255C120.77 32.7518 122.616 36.1608 124.151 39.7127C124.329 40.1024 124.496 40.4978 124.662 40.8938C128.185 49.5209 129.787 58.7754 129.552 67.8923C129.612 64.8756 129.412 61.8603 129.078 58.8706C128.699 55.4251 128 52.0209 127.073 48.6911C125.254 42.0139 122.301 35.6852 118.552 29.9159C118.896 30.3915 119.259 30.9068 119.634 31.4533C120.036 32.019 120.413 32.6023 120.763 33.2016L120.31 32.4144L119.821 31.6485L118.843 30.1182C118.177 29.1074 117.455 28.1335 116.76 27.1426C116.006 26.1958 115.292 25.2176 114.507 24.2956C113.914 23.6191 113.345 22.92 112.743 22.252C114.867 24.4915 116.861 26.8942 118.634 29.5255ZM68.7711 0.817827C69.8124 0.873192 70.8559 0.974695 71.8993 1.05277C72.7539 1.12447 73.6042 1.25081 74.4461 1.34593C74.6988 1.35657 74.9657 1.37361 75.3007 1.41123C75.635 1.45737 76.0346 1.54326 76.5564 1.6625C80.4383 2.30985 83.9803 3.28301 86.4944 4.2881C91.3198 6.11445 95.8093 8.38656 99.8815 11.0107C103.955 13.6299 107.611 16.609 110.703 19.8628C112.129 21.4095 111.713 21.0723 110.927 20.3213L112.107 21.5735C111.584 21.0525 111.071 20.5244 110.541 20.0147L108.907 18.5312C109.305 18.879 110.269 19.7116 110.927 20.3213C105.682 14.9701 99.5514 10.5266 92.9154 7.25796C86.2744 3.99069 79.123 1.97269 71.9745 1.16705C73.123 1.29482 73.6866 1.32321 74.2232 1.33741C73.4531 1.24726 72.6808 1.12376 71.8993 1.05277C70.8495 0.983923 69.8018 0.890228 68.7598 0.839121L65.665 0.76601C66.69 0.765301 67.7284 0.793693 68.7711 0.817827Z" fill="#DB271F"/>
<path d="M82.2973 131.095L82.5997 131.007C82.2831 131.092 81.9715 131.186 81.6528 131.266C81.8686 131.213 82.0851 131.16 82.2973 131.095ZM113.871 103.74C116.877 99.7742 119.533 95.0355 121.229 90.9534L121.209 90.9576C116.906 101.124 109.928 109.881 101.22 116.329C102.766 115.255 104.285 114.141 105.776 112.991C107.691 110.989 110.896 107.734 113.871 103.74ZM25.0921 115.59C30.1829 120.142 36.3221 124.102 43.1554 126.771C45.8201 127.773 48.5394 128.652 51.3204 129.271C52.7003 129.627 54.1093 129.848 55.5076 130.109C56.2082 130.234 56.918 130.303 57.6221 130.402C58.3277 130.493 59.0318 130.597 59.7423 130.638C56.5347 130.283 53.3505 129.75 50.2507 128.906C47.1531 128.065 44.1165 127.025 41.1871 125.748C38.2729 124.451 35.452 122.954 32.7446 121.267C30.0573 119.557 27.509 117.649 25.0921 115.59ZM87.9297 123.704L86.3546 124.322L84.7462 124.859C83.6815 125.242 82.5834 125.529 81.4882 125.834C82.5891 125.557 83.6964 125.298 84.7703 124.943L86.3908 124.448L87.9737 123.869C87.9127 123.838 87.5521 123.909 87.9297 123.704ZM69.3369 127.742C68.5135 127.812 67.6859 127.805 66.8568 127.814C66.0277 127.824 65.1973 127.842 64.3661 127.787L65.4847 127.892C65.8269 127.914 66.1349 127.94 66.4039 127.972C67.3842 127.888 68.3573 127.865 69.3369 127.742ZM36.5137 120.107C37.4656 120.665 38.4764 121.157 39.4793 121.7C39.7306 121.837 40.1863 121.994 40.7577 122.203C39.5361 121.678 38.3656 121.028 37.176 120.425C36.5868 120.112 36.0197 119.761 35.4419 119.435C34.8655 119.105 34.2913 118.777 33.7462 118.409L34.4113 118.853L35.1047 119.268L36.5137 120.107Z" fill="#DB271F"/>
<path d="M29 97.4734H47.142V58.684L79.5384 97.4734H102V37H83.858V75.7893L51.4615 37H29V97.4734Z" fill="#DB271F"/>
<path d="M151 92.12H166.12V59.792L193.12 92.12H211.84V41.72H196.72V74.048L169.72 41.72H151V92.12Z" fill="#DB271F"/>
<path d="M212.125 92.12H231.565L260.509 53.816L250.789 41L212.125 92.12ZM270.013 92.12H289.453L261.949 55.688L252.229 68.576L270.013 92.12Z" fill="#DD2E27"/>
<path d="M342.559 66.848C342.559 80.888 331.327 92.12 317.359 92.12H290.359V77H317.359C322.975 77 327.439 72.536 327.439 66.92V41.72H342.559V66.848Z" fill="#DE352F"/>
<path d="M334.328 92.12H353.768L382.712 53.816L372.992 41L334.328 92.12ZM392.216 92.12H411.656L384.152 55.688L374.432 68.576L392.216 92.12Z" fill="#E03B36"/>
<path d="M411.859 92.12H426.979V74.48H472.699V59.36H426.979V56.84H472.699V41.72H411.859V92.12Z" fill="#E1423E"/>
<path d="M474.859 41.72V92.12H489.979V41.72H474.859Z" fill="#E34946"/>
<path d="M541.996 89.6H506.716V44.24H541.996C554.596 44.24 564.676 54.32 564.676 66.848C564.676 79.52 554.596 89.6 541.996 89.6ZM504.196 92.12H541.996C555.964 92.12 567.196 80.888 567.196 66.848C567.196 52.952 555.964 41.72 541.996 41.72H504.196V92.12ZM541.996 79.52C548.98 79.52 554.596 73.904 554.596 66.92C554.596 59.936 548.98 54.32 541.996 54.32H516.796V79.52H541.996ZM541.996 77H519.316V56.84H541.996C547.612 56.84 552.076 61.304 552.076 66.92C552.076 72.536 547.612 77 541.996 77Z" fill="#E4504E"/>
<path d="M571.263 89.6V44.24H627.063V57.92H583.863V60.44H627.063V73.4H583.863V75.92H627.063V89.6H571.263ZM568.743 92.12H629.583V41.72H568.743V92.12Z" fill="#E65655"/>
<path d="M632.646 44.24H644.814L671.814 80.024L665.766 87.944L632.646 44.24ZM627.606 41.72L665.766 92.12L674.982 80.024L703.926 41.72H684.486L665.262 67.136L646.038 41.72H627.606ZM685.71 44.24H698.886L673.398 77.864L666.846 69.224L685.71 44.24Z" fill="#E75D5D"/>
</svg>
